<svg preserveAspectRatio="none" width="100%" height="100%" overflow="visible" style="display: block;" viewBox="0 0 56 15" fill="none" xmlns="http://www.w3.org/2000/svg">
<g id="obj">
<path id="Vector" d="M55.5112 8.60001H49.0112C48.9912 8.86001 48.9712 9.12001 48.9712 9.40001C48.9712 11.62 50.5312 12.96 52.2312 13.02C53.3512 13.06 54.6312 12.66 55.4712 11.42L55.6312 11.56C54.7112 12.88 53.6712 14.1 51.5712 14.1C48.7512 14.1 46.8712 12.22 46.8712 9.40001C46.8712 6.58001 48.7512 4.70001 51.5712 4.70001C53.6712 4.70001 55.5112 6.28001 55.5112 8.60001ZM49.0512 8.26001H53.4312C53.5912 6.90001 52.9712 5.00001 51.5712 5.00001C50.2512 5.00001 49.3112 6.26001 49.0512 8.26001Z" fill="var(--fill-0, #333333)"/>
<path id="Vector_2" d="M45.4206 7.36001L42.7806 14.1H41.9206L38.8806 7.38001C38.2806 6.04001 37.9806 5.28001 37.1806 4.86001V4.70001H40.5806V4.86001C40.3206 5.28001 40.5006 5.96001 40.8606 6.80001L43.1806 12.14L45.3006 6.82001C45.6406 5.96001 45.4006 5.28001 45.1406 4.86001V4.70001H47.3406V4.86001C46.5406 5.28001 46.0206 6.02001 45.4206 7.36001Z" fill="var(--fill-0, #333333)"/>
<path id="Vector_3" d="M28.011 9.40001C28.011 6.58001 29.891 4.70001 32.711 4.70001C35.531 4.70001 37.411 6.58001 37.411 9.40001C37.411 12.22 35.531 14.1 32.711 14.1C29.891 14.1 28.011 12.22 28.011 9.40001ZM30.091 9.40001C30.091 12.04 31.131 13.8 32.711 13.8C34.271 13.8 35.311 12.04 35.311 9.40001C35.311 6.76001 34.271 5.00001 32.711 5.00001C31.131 5.00001 30.091 6.76001 30.091 9.40001Z" fill="var(--fill-0, #333333)"/>
<path id="Vector_4" d="M27.7983 11.72L27.2983 14.1H17.9583V13.94C18.5583 13.34 18.6983 12.96 18.6983 12.04V2.06C18.6983 1.14 18.5583 0.76 17.9583 0.16V0H21.4783V0.16C20.9183 0.76 20.6983 1.14 20.6983 2.06V13.66H24.2983C25.4583 13.66 26.8383 13.06 27.6383 11.72H27.7983Z" fill="var(--fill-0, #333333)"/>
<path id="Vector_5" d="M4.41058 5.10001L7.33058 4.70001V7.12001C8.13058 5.78001 9.05058 4.70001 10.7106 4.70001C12.1906 4.70001 13.3306 5.44001 13.3306 7.04001L13.3706 12.04C13.3706 12.96 13.5906 13.34 14.1506 13.94V14.1H10.6306V13.94C11.2306 13.34 11.3706 12.96 11.3706 12.04L11.3306 7.44001C11.3306 6.50001 10.7306 5.76001 9.87058 5.76001C8.65058 5.76001 7.89058 6.76001 7.33058 7.72001V12.04C7.33058 12.96 7.55058 13.34 8.11058 13.94V14.1H4.59058V13.94C5.19058 13.34 5.33058 12.96 5.33058 12.04V7.16001C5.33058 6.24001 5.11058 5.78001 4.41058 5.26001V5.10001Z" fill="var(--fill-0, #333333)"/>
<path id="Vector_6" d="M0.740015 2.06C0.740015 1.14 0.600015 0.76 1.52588e-05 0.16V0H3.52002V0.16C2.96002 0.76 2.74002 1.14 2.74002 2.06V12.04C2.74002 12.96 2.96002 13.34 3.52002 13.94V14.1H1.52588e-05V13.94C0.600015 13.34 0.740015 12.96 0.740015 12.04V2.06Z" fill="var(--fill-0, #333333)"/>
</g>
</svg>
