<svg preserveAspectRatio="none" width="100%" height="100%" overflow="visible" style="display: block;" viewBox="0 0 184 46" fill="none" xmlns="http://www.w3.org/2000/svg">
<g id="decoration[locked]">
<path id="Vector" d="M48.9993 0.530295C48.9221 0.626712 48.8354 0.713488 48.7389 0.78098C48.5365 0.935248 48.3918 0.887039 48.2858 0.645996C48.2665 0.617071 48.2569 0.588145 48.2376 0.549579C47.9483 0.520653 47.688 0.578504 47.4566 0.72313C47.1866 0.896681 46.9263 1.07987 46.6756 1.28235C45.7404 2.08261 44.969 3.0275 44.3327 4.06881C43.571 5.31259 42.9346 6.61423 42.3368 7.94478C41.5269 9.75743 40.6977 11.5508 39.7625 13.3056C38.7983 15.1279 37.651 16.8345 36.3782 18.4543C34.932 20.3055 33.3507 22.0217 31.6345 23.6222C30.8535 24.355 30.0436 25.0589 29.2241 25.7531C28.0574 26.7462 26.8811 27.7103 25.6952 28.6745C24.7889 29.4169 23.8729 30.14 22.957 30.8728C22.6773 31.0946 22.417 31.3453 22.1567 31.5863C22.0024 31.7309 21.8674 31.8948 21.8096 32.0973C21.6746 32.1841 21.5493 32.0491 21.4143 32.1166C21.3179 32.1648 21.2022 32.0202 21.2311 31.9045C21.2504 31.8177 21.2889 31.7406 21.3275 31.6634C21.4239 31.4899 21.53 31.326 21.636 31.1621C22.2435 30.1883 22.8413 29.2144 23.4583 28.2503C23.9983 27.3922 24.5478 26.5533 25.0878 25.6952C26.4087 23.603 27.5753 21.4239 28.6456 19.187C29.2626 17.895 29.8604 16.6031 30.4775 15.3111C30.5257 15.2146 30.5546 15.1182 30.5932 15.0218C30.5546 15.0411 30.5161 15.0411 30.4968 15.07C30.3907 15.2243 30.2943 15.3786 30.1883 15.5328C29.1469 17.0948 27.9803 18.5603 26.7076 19.9295C25.9266 20.7683 25.1649 21.6168 24.3454 22.4267C22.8798 23.8729 21.3082 25.1938 19.6498 26.428C18.3482 27.4018 16.9791 28.2792 15.5907 29.118C14.559 29.7447 13.5466 30.4004 12.5342 31.056C12.2064 31.2681 11.8979 31.5188 11.5894 31.7695C11.2808 32.0105 10.9819 32.2709 10.6638 32.5312C10.6734 32.5794 10.6927 32.6373 10.6927 32.6951C10.6927 32.8108 10.5963 32.8783 10.4998 32.8204C10.3938 32.7626 10.3263 32.6758 10.3263 32.5505C10.3263 32.3962 10.3456 32.2323 10.3938 32.078C10.5384 31.6249 10.6927 31.1621 10.8566 30.7185C11.5122 28.9541 12.1582 27.18 12.8524 25.4349C13.3056 24.2779 13.8166 23.1402 14.318 22.0024C14.964 20.5369 15.6389 19.0906 16.362 17.6636C16.9116 16.5741 17.4708 15.4943 18.0493 14.4144C18.7724 13.0549 19.5149 11.7051 20.2573 10.3552C20.7297 9.4971 21.2407 8.64863 21.7999 7.83873C21.8771 7.73267 21.9446 7.61697 22.0121 7.50127C21.9542 7.42413 21.9157 7.49162 21.8964 7.51091C20.7394 8.73541 19.3895 9.69958 17.9818 10.577C15.6292 12.0522 13.2767 13.5081 10.9241 14.9736C9.40069 15.9281 7.88693 16.902 6.43103 17.9529C5.08119 18.9267 3.80848 19.9969 2.67076 21.2118C2.06333 21.8578 1.48483 22.5327 1.04131 23.3137C0.800264 23.7283 0.597787 24.1718 0.482086 24.6346C0.453161 24.7696 0.44352 24.9046 0.404953 25.0299C0.385669 25.0781 0.337461 25.136 0.289252 25.1649C0.212118 25.2035 0.144626 25.1456 0.0964173 25.0878C0.0289252 25.0106 0.00964173 24.9142 0 24.8178C0 24.6153 0.0482087 24.4321 0.115701 24.2393C0.366386 23.5162 0.742413 22.8798 1.21486 22.282C2.12118 21.1347 3.15285 20.1223 4.27129 19.1774C5.22582 18.3771 6.2382 17.654 7.26986 16.9598C9.08251 15.7449 10.953 14.6169 12.8139 13.4888C14.8579 12.245 16.873 10.9723 18.8978 9.69958C19.3799 9.40069 19.8234 9.04394 20.2669 8.69684C21.0383 8.09905 21.7325 7.41449 22.3302 6.64315C22.5906 6.30569 22.8605 5.96823 23.1402 5.63077C23.2269 5.52471 23.3233 5.42829 23.4294 5.34152C23.5547 5.2451 23.7187 5.31259 23.7476 5.45722C23.7669 5.54399 23.7669 5.63077 23.7476 5.7079C23.6801 5.90074 23.603 6.10322 23.4969 6.27677C23.1691 6.8167 22.8316 7.347 22.4942 7.86765C21.7325 9.04394 21.019 10.2588 20.3344 11.4833C19.1581 13.6141 18.0107 15.7642 16.9116 17.9433C16.1403 19.4667 15.4171 21.019 14.7326 22.5906C14.0769 24.0947 13.4406 25.5988 12.8042 27.1125C12.245 28.4527 11.6954 29.7929 11.1458 31.1428C11.088 31.2874 11.0301 31.4417 10.9723 31.5863C10.953 31.6345 10.953 31.702 10.9337 31.7888C11.0012 31.7599 11.0398 31.7406 11.0591 31.7213C11.7726 31.0464 12.6017 30.5257 13.4309 30.0243C14.5494 29.3398 15.6775 28.6456 16.7959 27.9514C17.9047 27.2765 18.9267 26.4955 19.9584 25.7049C21.5782 24.4514 23.1209 23.1112 24.5382 21.6264C25.6856 20.4212 26.8329 19.216 27.8839 17.924C29.1759 16.3524 30.3425 14.6844 31.3549 12.9199C31.3935 12.8621 31.4224 12.7946 31.461 12.7271C31.7791 12.2161 32.0588 11.6858 32.2227 11.088C32.2805 10.8759 32.3769 10.6734 32.4733 10.4709C32.5312 10.3456 32.5987 10.3167 32.7433 10.4034C32.8108 10.442 32.8783 10.442 32.9458 10.4613C32.9844 10.4709 33.0229 10.5095 33.0808 10.5384C33.0036 10.6541 32.9265 10.7505 32.859 10.8469C32.7144 11.1073 32.5987 11.3676 32.5312 11.6665C32.3287 12.486 32.0202 13.2574 31.702 14.0384C31.0174 15.716 30.2461 17.3551 29.4555 18.9749C28.9059 20.103 28.3563 21.2407 27.7778 22.3495C26.7172 24.3646 25.5024 26.3026 24.2007 28.1635C23.6801 28.8963 23.1691 29.6387 22.6581 30.3714C22.5809 30.4775 22.5134 30.5932 22.4363 30.6993C22.5038 30.7764 22.5424 30.7186 22.5616 30.6896C23.7861 29.5615 25.1456 28.5877 26.4183 27.5271C27.9321 26.2641 29.4458 25.001 30.9017 23.6704C32.2998 22.3881 33.6304 21.0286 34.8645 19.5824C35.848 18.435 36.7832 17.2394 37.6413 15.9956C38.5766 14.6458 39.3768 13.2188 40.1192 11.7533C40.8424 10.3167 41.5269 8.85111 42.1922 7.37592C42.7804 6.08393 43.436 4.83051 44.188 3.62529C44.863 2.55506 45.6825 1.61017 46.6563 0.800264C46.8299 0.655638 47.0034 0.530295 47.1866 0.404953C47.5819 0.125343 48.0351 0.00964173 48.5075 0C48.6715 0 48.8257 0.00964173 48.98 0.0867756C49.1439 0.173551 49.1825 0.347102 49.0571 0.482086L48.9993 0.530295ZM30.6028 14.935V14.9832C30.6028 14.9832 30.6221 14.9543 30.6221 14.9447C30.6221 14.9447 30.6125 14.935 30.6028 14.9254V14.935Z" fill="#CC9052"/>
<path id="Vector_2" d="M51.7761 24.7792C51.7568 24.8274 51.7568 24.866 51.7375 24.8853C51.699 24.9239 51.6411 24.9624 51.5929 24.9914C50.6673 25.5217 49.7513 26.0616 48.8161 26.563C47.4759 27.2764 46.0393 27.7103 44.5352 27.9321C43.1564 28.1346 41.8065 28.0092 40.5049 27.45C39.936 27.209 39.4829 26.8233 39.1551 26.3026C38.6441 25.4831 38.7983 24.4225 39.5118 23.8054C39.6661 23.6704 39.83 23.5837 40.0228 23.5258C40.1096 23.5065 40.1964 23.4872 40.2735 23.4969C40.5435 23.5162 40.717 23.7379 40.6688 24.0079C40.6399 24.1525 40.5724 24.2875 40.4856 24.4032C40.2639 24.6925 39.9746 24.8949 39.6468 25.0396C39.5697 25.0781 39.4829 25.0974 39.3961 25.136C39.2901 25.6856 39.454 26.1291 39.7914 26.5244C39.9939 26.7558 40.2349 26.9486 40.5146 27.0836C41.1605 27.4018 41.8355 27.6043 42.5393 27.691C43.6867 27.8357 44.8051 27.6814 45.9236 27.4211C47.1866 27.1318 48.3726 26.6401 49.491 26.0134C50.1466 25.647 50.7926 25.271 51.4386 24.9046C51.535 24.8467 51.6315 24.76 51.7857 24.7889L51.7761 24.7792ZM39.6757 24.5093C39.8878 24.4418 39.9168 24.4032 40.0132 24.1718C39.8686 24.2586 39.7625 24.3646 39.6757 24.5093Z" fill="#CC9052"/>
<path id="Vector_3" d="M68.2827 23.4098C68.1285 23.3809 67.9935 23.4581 67.8585 23.5063C66.3351 24.0076 64.8599 24.6536 63.4233 25.3768C61.9867 26.0999 60.5501 26.958 59.1327 27.8065C58.4867 28.1921 57.8407 28.5585 57.1851 28.9153C56.7801 29.137 56.3463 29.3202 55.8835 29.407C55.6713 29.4456 55.4399 29.4649 55.2278 29.4456C54.765 29.3974 54.4661 29.1274 54.3022 28.7032C54.1672 28.3561 54.1383 27.9897 54.1769 27.6136C54.2347 26.9869 54.4179 26.3891 54.659 25.8106C54.9482 25.1164 55.3339 24.4801 55.7485 23.8534C55.8449 23.7087 55.9317 23.5738 55.9895 23.4002C55.9027 23.4581 55.816 23.5159 55.7292 23.5738C55.1796 23.9884 54.6397 24.4126 54.0805 24.8175C53.6273 25.155 53.1548 25.4732 52.6535 25.7335C52.451 25.8396 52.2292 25.936 51.9978 25.9456C51.7954 25.9456 51.6315 25.8974 51.535 25.7046C51.4965 25.6274 51.4772 25.5407 51.4675 25.4635C51.4386 25.0972 51.5447 24.7597 51.7472 24.4608C52.0653 23.9884 52.4992 23.6605 53.0102 23.4195C53.4537 23.2074 53.9262 23.082 54.4372 23.111C54.6108 23.1206 54.7747 23.1592 54.9289 23.2459C55.0832 23.3327 55.1796 23.4484 55.1025 23.6316C54.9964 23.622 54.8807 23.6027 54.7747 23.593C54.63 23.5834 54.4758 23.5448 54.3408 23.5738C53.5887 23.6991 52.9138 23.9884 52.3739 24.5476C52.1521 24.779 52.0075 25.0393 51.9496 25.3478C51.94 25.4057 51.9496 25.4635 51.9496 25.5407C52.046 25.531 52.1232 25.5407 52.181 25.5117C52.4124 25.4153 52.6535 25.3093 52.8752 25.1936C53.608 24.7886 54.2733 24.2969 54.9386 23.7955C54.9964 23.7569 55.035 23.6895 55.0832 23.6316C55.17 23.5834 55.2664 23.5545 55.3435 23.4966C55.7967 23.1592 56.2402 22.8217 56.6934 22.4746C56.7801 22.4071 56.8669 22.33 56.9344 22.2528C58.1975 20.7294 59.6052 19.341 61.0996 18.049C63.4619 16.005 65.9301 14.1056 68.5238 12.3701C68.9384 12.0905 69.3819 11.8494 69.8158 11.5987C70.0472 11.4637 70.2978 11.3673 70.5678 11.3191C70.6353 11.3095 70.7124 11.2998 70.7896 11.3191C70.9535 11.348 71.0403 11.5023 70.9631 11.6566C70.886 11.8108 70.7896 11.9458 70.6739 12.0808C70.2786 12.5436 69.835 12.9389 69.3819 13.3342C67.926 14.5684 66.4026 15.7061 64.8695 16.8245C62.7966 18.3383 60.7332 19.8521 58.6506 21.3658C58.2842 21.6358 57.9468 21.9347 57.6575 22.2914C56.9344 23.1592 56.2498 24.0558 55.6713 25.0297C55.2375 25.7721 54.8518 26.5434 54.6686 27.3919C54.6011 27.7197 54.5722 28.0475 54.63 28.3753C54.6493 28.5007 54.6975 28.6357 54.7554 28.761C54.8614 28.9731 55.035 29.0985 55.276 29.1274C55.5364 29.166 55.787 29.137 56.0377 29.0792C56.433 28.9828 56.8091 28.8285 57.1658 28.6357C57.7636 28.3175 58.3517 27.9993 58.9399 27.6618C60.068 27.0159 61.1864 26.3506 62.3241 25.7335C64.291 24.6633 66.3351 23.7859 68.4563 23.082C68.8323 22.9567 69.1987 22.8217 69.5651 22.6964C69.6711 22.6578 69.7772 22.6385 69.8833 22.6289C69.999 22.6192 70.0857 22.7542 70.0375 22.8603C69.9989 22.9374 69.9507 23.0049 69.8833 23.0627C69.7193 23.1881 69.5458 23.3134 69.3819 23.4291C68.8612 23.7762 68.3309 24.1041 67.8199 24.4704C67.5596 24.6536 67.3378 24.885 67.1064 25.1068C66.9618 25.2514 66.9714 25.2611 66.9329 25.4925C67.0486 25.5407 67.1739 25.5117 67.2896 25.4828C67.6078 25.396 67.9067 25.2514 68.2056 25.0972C68.7455 24.8079 69.2565 24.4704 69.7579 24.1137C70.6353 23.487 71.5127 22.8506 72.3805 22.2143C72.4769 22.1371 72.5733 22.06 72.6601 21.9732C75.1862 19.2639 78.0402 16.9499 81.1351 14.9348C82.485 14.0574 83.8541 13.2282 85.3004 12.5147C85.7825 12.2737 86.2838 12.0712 86.7756 11.8591C86.9202 11.8012 87.0745 11.7626 87.2287 11.7241C87.2769 11.7144 87.3251 11.7048 87.3733 11.7048C87.5469 11.7048 87.6433 11.8591 87.5565 12.0037C87.5083 12.0905 87.4408 12.1676 87.3637 12.2254C87.1709 12.399 86.9877 12.5725 86.7756 12.7268C85.5993 13.556 84.4423 14.4045 83.2467 15.1951C81.1352 16.6124 79.0043 17.9912 76.8928 19.3892C76.0443 19.9485 75.2055 20.527 74.3667 21.1055C74.1931 21.2212 74.0388 21.3658 73.8942 21.5104C72.313 23.1495 70.9149 24.9332 69.729 26.8809C69.0155 28.0379 68.4756 29.272 67.9935 30.5254C67.6367 31.4511 67.2993 32.3863 67.0679 33.3601C67.0004 33.659 66.9329 33.9579 66.904 34.2664C66.8847 34.4593 66.904 34.6617 66.9232 34.8546C66.9618 35.0667 67.0679 35.1438 67.28 35.1535C67.3089 35.1535 67.3282 35.1535 67.3571 35.1535C67.4342 35.1438 67.5114 35.1535 67.5403 35.2306C67.5692 35.3174 67.5017 35.4138 67.3957 35.4524C67.1257 35.5488 66.8365 35.4524 66.6726 35.2306C66.5665 35.086 66.5183 34.9317 66.5086 34.7485C66.4701 34.2857 66.5376 33.8422 66.634 33.3987C66.8461 32.4538 67.1546 31.5282 67.4921 30.6219C67.8778 29.5806 68.3116 28.5682 68.7745 27.5751C69.2951 26.4566 69.9507 25.425 70.6739 24.4222C70.9149 24.0848 71.1849 23.757 71.4356 23.4291C71.4741 23.3809 71.5031 23.3327 71.532 23.2845C71.4356 23.217 71.3874 23.2941 71.3295 23.3327C70.8185 23.7087 70.3171 24.1041 69.7868 24.4704C69.2758 24.8272 68.7552 25.1743 68.2249 25.5117C67.9453 25.6853 67.6464 25.8299 67.3185 25.9167C67.1643 25.9553 67.0004 25.9745 66.8461 25.9745C66.5665 25.9649 66.4026 25.7721 66.3929 25.4925C66.3929 25.3286 66.4315 25.1743 66.5183 25.0393C66.6243 24.8754 66.74 24.7211 66.875 24.5669C67.2221 24.1908 67.6367 23.9209 68.061 23.6412C68.1381 23.593 68.2442 23.5738 68.2634 23.4581C68.2924 23.4581 68.3213 23.4581 68.3502 23.4581C68.3502 23.4484 68.3309 23.4291 68.3309 23.4195C68.3213 23.4388 68.302 23.4484 68.2731 23.4677L68.2827 23.4098ZM59.4509 20.3438C59.4509 20.3438 59.4895 20.3727 59.4991 20.392C59.6148 20.3052 59.7402 20.2281 59.8559 20.1509C60.6561 19.5724 61.466 18.9843 62.2663 18.3961C63.78 17.2874 65.3034 16.1882 66.8075 15.0698C67.7139 14.3948 68.6009 13.7006 69.4494 12.9486C69.8061 12.6304 70.1339 12.2833 70.4714 11.9362C70.5582 11.8398 70.6546 11.7434 70.6932 11.5987C70.5775 11.5698 70.4907 11.6084 70.4039 11.6469C70.1821 11.753 69.9604 11.8591 69.7579 11.994C69.1601 12.3894 68.5623 12.7654 67.9935 13.1896C66.8943 14.0092 65.7952 14.8383 64.7153 15.6868C62.9605 17.0656 61.2635 18.5119 59.6727 20.0931C59.5955 20.1702 59.5184 20.257 59.4509 20.3341V20.3438ZM75.4465 19.9678C75.4465 19.9678 75.4851 19.9967 75.4947 20.016C75.6008 19.9485 75.6972 19.881 75.8033 19.8135C77.4231 18.7433 79.0333 17.6827 80.6531 16.6124C81.9161 15.7832 83.1792 14.9637 84.4326 14.1249C85.2232 13.5849 85.9849 13.0161 86.7659 12.4472C86.9491 12.3122 87.1323 12.1579 87.2866 11.9555C87.0937 11.9362 86.9588 12.0326 86.8238 12.0905C86.0524 12.4086 85.3197 12.8039 84.5965 13.2185C81.463 15.0023 78.5704 17.1138 75.8997 19.5435C75.7551 19.6785 75.6104 19.8231 75.4562 19.9678H75.4465Z" fill="#CC9052"/>
<path id="Vector_4" d="M87.3251 24.7404C87.3155 24.8369 87.3251 24.8851 87.2962 24.914C87.2576 24.9526 87.1998 24.9911 87.1516 25.02C86.1103 25.4828 85.1075 26.0228 84.0373 26.4181C82.755 26.9002 81.4437 27.3051 80.1131 27.633C79.4478 27.7969 78.7633 27.9126 78.0787 27.9222C77.6834 27.9318 77.2977 27.9126 76.9121 27.8161C76.5843 27.739 76.2854 27.604 76.025 27.4016C75.6201 27.093 75.4658 26.6784 75.5237 26.1771C75.5815 25.6757 75.7936 25.2418 76.0829 24.8368C76.4011 24.4126 76.7867 24.0559 77.211 23.7377C77.2977 23.6702 77.4038 23.6316 77.5002 23.5834C77.6063 23.5449 77.6931 23.5834 77.7605 23.6702C77.8184 23.7377 77.8377 23.8245 77.8088 23.9112C77.7702 24.0462 77.6738 24.1426 77.5773 24.2391C77.3459 24.4608 77.1145 24.6729 76.8831 24.8947C76.565 25.2129 76.3239 25.5793 76.1504 25.9842C76.0829 26.1288 76.054 26.2831 76.025 26.4374C75.9768 26.6688 76.054 26.8713 76.2179 27.0352C76.4011 27.2184 76.6132 27.363 76.8639 27.4401C77.1338 27.5269 77.4038 27.5751 77.6931 27.5944C78.5319 27.6426 79.3514 27.5173 80.171 27.3244C82.109 26.8616 83.9795 26.2349 85.7921 25.4154C86.1392 25.2611 86.4863 25.1068 86.8334 24.9526C86.978 24.8851 87.113 24.8176 87.3155 24.7212L87.3251 24.7404ZM78.4162 22.9181C78.2619 22.8024 78.2233 22.571 78.3101 22.3782C78.4162 22.1372 78.5897 22.0022 78.8308 22.0118C78.8597 22.0215 78.9272 22.0407 78.9754 22.0793C79.0236 22.1179 79.0622 22.1757 79.1007 22.2336C79.2164 22.3879 79.2839 22.5518 79.1779 22.735C79.0718 22.9278 78.8983 23.0242 78.6861 23.0146C78.5994 23.0146 78.4933 22.976 78.4162 22.9181Z" fill="#CC9052"/>
<path id="Vector_5" d="M103.475 24.818C103.475 24.818 103.446 24.9144 103.417 24.9529C103.369 25.0108 103.321 25.0686 103.263 25.1169C101.952 26.2449 100.563 27.267 98.9531 27.9419C97.7479 28.4433 96.4848 28.7518 95.1832 28.8C94.0744 28.8386 92.9848 28.7132 91.9339 28.3179C91.2493 28.0576 90.6323 27.7008 90.102 27.1898C89.7838 26.8813 89.5235 26.5245 89.3403 26.1196C89.2728 25.9653 89.1956 25.8111 89.1089 25.6568C88.9642 25.3965 88.8582 25.3579 88.5593 25.435C88.3954 25.4832 88.2315 25.5507 88.0868 25.6375C87.5565 25.946 87.0552 26.2931 86.5924 26.6981C86.496 26.7849 86.3995 26.862 86.3031 26.9295C86.2453 26.9777 86.1681 26.997 86.1006 26.9584C86.0139 26.9102 85.9849 26.8234 85.9946 26.7367C86.0139 26.6306 86.0428 26.5245 86.091 26.4281C86.3706 25.8111 86.6984 25.2229 87.1227 24.7023C87.4891 24.2587 87.8844 23.8441 88.3182 23.4585C88.4243 23.3621 88.5304 23.2946 88.6653 23.2656C88.8582 23.2271 89.0414 23.3717 89.0221 23.5742C89.0028 23.6802 88.9546 23.7863 88.9064 23.8731C88.8775 23.9213 88.8293 23.9598 88.781 24.0081C88.3182 24.4419 87.8844 24.9144 87.4794 25.4061C87.3637 25.5507 87.2287 25.6761 87.1034 25.8111C87.0455 25.8689 86.9973 25.9364 86.9491 26.0039C87.0648 26.0425 87.1034 25.9653 87.1612 25.9268C87.4312 25.7532 87.6915 25.57 87.9519 25.3965C88.1447 25.2711 88.3568 25.1651 88.5882 25.1169C88.945 25.0397 89.1474 25.1169 89.3403 25.4157C89.427 25.5604 89.5138 25.7146 89.5813 25.8689C89.8898 26.6017 90.4201 27.132 91.0758 27.5369C91.8857 28.0383 92.7631 28.3565 93.7176 28.4722C94.4311 28.559 95.1349 28.5782 95.8484 28.5204C96.6969 28.4433 97.5164 28.2504 98.3167 27.9804C99.2712 27.6623 100.158 27.1802 100.997 26.621C101.72 26.1389 102.405 25.5893 103.06 25.0301C103.176 24.924 103.292 24.818 103.427 24.683C103.456 24.7408 103.485 24.7794 103.494 24.818H103.475Z" fill="#CC9052"/>
<path id="Vector_6" d="M114.746 24.8082C114.698 24.8853 114.621 24.9624 114.553 25.0299C113.184 26.3605 111.68 27.5078 110.041 28.472C107.737 29.8315 105.307 30.8728 102.733 31.5959C102.694 31.6056 102.665 31.6249 102.627 31.6249C102.386 31.6538 102.251 31.7984 102.116 31.9912C100.592 34.1896 98.9145 36.2625 97.0054 38.1427C95.1639 39.9553 93.1488 41.5462 90.9022 42.8189C89.3885 43.677 87.7976 44.3809 86.1103 44.834C85.0979 45.104 84.0759 45.2679 83.0249 45.2968C81.8583 45.3161 80.7302 45.1618 79.6407 44.728C78.7729 44.3809 78.0209 43.8602 77.3942 43.1756C76.2275 41.8837 75.9961 40.4181 76.6035 38.8079C76.835 38.2005 77.1917 37.6799 77.6159 37.1978C78.3391 36.3782 79.2165 35.7612 80.1806 35.2598C81.2219 34.7199 82.3211 34.3631 83.4588 34.0931C84.664 33.8039 85.8789 33.6111 87.113 33.4857C88.2411 33.37 89.3788 33.2543 90.5069 33.1483C91.4422 33.0615 92.3871 32.994 93.3223 32.8976C94.354 32.8011 95.3953 32.6855 96.4269 32.5601C97.7768 32.3962 99.117 32.1648 100.448 31.8852C100.814 31.8081 101.19 31.7116 101.556 31.6345C101.759 31.5959 101.903 31.4995 102.019 31.3163C102.376 30.7475 102.752 30.1882 103.109 29.6097C103.803 28.5009 104.478 27.3729 105.239 26.3026C105.558 25.8687 105.885 25.4349 106.204 25.001C106.271 24.9142 106.329 24.8371 106.387 24.7503C106.387 24.7407 106.368 24.7214 106.358 24.7117C106.29 24.7503 106.213 24.7889 106.146 24.8274C105.673 25.136 105.191 25.4252 104.68 25.6566C104.43 25.7723 104.16 25.8687 103.89 25.9459C103.755 25.9844 103.6 25.9941 103.456 25.9748C103.195 25.9459 103.041 25.7723 103.032 25.5024C103.032 25.2999 103.08 25.1167 103.186 24.9431C103.398 24.5864 103.687 24.3164 104.044 24.1043C104.391 23.9018 104.748 23.7668 105.143 23.7283C105.336 23.709 105.509 23.7283 105.673 23.8247C105.828 23.9018 105.914 24.0272 105.905 24.2104C105.905 24.3646 105.76 24.4803 105.635 24.4128C105.307 24.2393 104.989 24.3454 104.68 24.4514C104.275 24.5864 103.928 24.8082 103.639 25.1167C103.533 25.2228 103.456 25.3481 103.417 25.4927C103.388 25.5988 103.446 25.6952 103.562 25.6952C103.706 25.6952 103.861 25.6952 103.996 25.6566C104.237 25.5891 104.487 25.5024 104.719 25.3963C105.644 24.9721 106.493 24.4032 107.274 23.7476C107.505 23.5547 107.698 23.3137 107.92 23.0919C108.026 22.9859 108.132 22.8895 108.248 22.793C108.286 22.7545 108.363 22.7448 108.421 22.7448C108.508 22.7448 108.585 22.8509 108.547 22.928C108.518 22.9955 108.469 23.0534 108.431 23.1112C108.219 23.3812 108.007 23.6511 107.785 23.9115C106.647 25.1842 105.654 26.5726 104.738 27.9996C104.063 29.0505 103.388 30.1015 102.713 31.1524C102.684 31.191 102.675 31.2392 102.646 31.2874C102.771 31.326 102.868 31.2778 102.974 31.2488C105.577 30.5064 108.036 29.4362 110.35 28.0189C111.912 27.0643 113.329 25.917 114.65 24.6539C114.65 24.6539 114.669 24.6539 114.688 24.6442C114.775 24.6635 114.823 24.7214 114.766 24.7889L114.746 24.8082ZM101.566 31.9623C101.45 31.972 101.364 31.9623 101.286 31.9816C100.689 32.1069 100.091 32.2516 99.493 32.3673C98.1432 32.6372 96.7933 32.8204 95.4242 32.9747C94.5757 33.0711 93.7176 33.1386 92.8691 33.2254C91.6254 33.3411 90.3816 33.4568 89.1378 33.5628C88.0097 33.6593 86.872 33.7653 85.7439 33.9292C84.7412 34.0739 83.7384 34.2667 82.7646 34.5367C81.6944 34.8259 80.6724 35.2212 79.7178 35.7901C78.8694 36.2915 78.1077 36.9085 77.5002 37.6895C76.9507 38.403 76.6035 39.2033 76.5168 40.0999C76.4204 41.1027 76.7192 41.9897 77.346 42.7611C78.0305 43.6095 78.8983 44.2073 79.9203 44.5833C80.6049 44.834 81.3087 44.9787 82.0318 45.0269C82.9864 45.0944 83.9409 45.0269 84.8858 44.8533C86.0621 44.6316 87.1902 44.2748 88.2893 43.812C90.9119 42.7032 93.2355 41.1412 95.3471 39.2418C97.6804 37.1399 99.6858 34.7584 101.441 32.1648C101.479 32.1069 101.518 32.0491 101.566 31.943V31.9623Z" fill="#CC9052"/>
<path id="Vector_7" d="M159.812 15.851C159.638 18.4832 158.799 20.9033 157.536 23.198C156.659 24.7889 155.608 26.2641 154.316 27.5465C152.725 29.1277 150.912 30.3715 148.82 31.2007C147.817 31.596 146.786 31.8563 145.725 32.0009C145.041 32.0974 144.356 32.1456 143.662 32.1456C142.418 32.1456 141.213 31.9527 140.027 31.596C138.822 31.2296 137.674 30.7186 136.575 30.1208C135.698 29.6484 134.84 29.147 133.962 28.6649C133.307 28.2985 132.632 27.9611 131.937 27.6814C131.822 27.6332 131.706 27.5947 131.581 27.5368C131.465 27.614 131.349 27.6814 131.243 27.7586C130.771 28.0768 130.298 28.3757 129.778 28.6167C129.392 28.7999 129.006 28.9445 128.582 28.9831C128.322 29.0024 128.061 28.9831 127.82 28.877C127.348 28.6649 127.223 28.2021 127.531 27.7779C127.676 27.585 127.849 27.4404 128.061 27.3247C128.428 27.1319 128.814 27.0258 129.218 26.968C129.913 26.8619 130.597 26.9583 131.263 27.1415C131.311 27.1512 131.359 27.1704 131.426 27.1897C131.513 27.1319 131.6 27.074 131.687 27.0065C132.824 26.1195 133.895 25.1553 134.917 24.1333C136.488 22.552 138.05 20.9612 139.612 19.3703C140.721 18.2326 141.811 17.0755 142.929 15.9475C144.414 14.4337 145.966 12.9971 147.625 11.6858C148.849 10.712 150.102 9.7864 151.462 8.99578C152.079 8.63903 152.715 8.31121 153.371 8.0316C153.573 7.94483 153.786 7.86769 153.998 7.80984C154.123 7.77128 154.268 7.77128 154.403 7.77128C154.528 7.77128 154.644 7.81949 154.73 7.90626C154.856 8.02196 154.875 8.16659 154.75 8.29193C154.702 8.34014 154.634 8.37871 154.567 8.41727C154.528 8.34014 154.499 8.27265 154.451 8.19551C154.354 8.20515 154.248 8.20516 154.162 8.24372C153.911 8.34014 153.651 8.42692 153.41 8.54262C152.233 9.08255 151.124 9.75747 150.064 10.4902C147.943 11.9558 146.005 13.6527 144.163 15.4557C142.592 16.9888 141.097 18.5893 139.564 20.1609C137.992 21.7807 136.402 23.3812 134.753 24.9143C133.895 25.7145 133.017 26.4762 132.082 27.1897C132.024 27.2379 131.976 27.2861 131.908 27.3343C131.937 27.3729 131.957 27.4115 131.986 27.4211C133.268 27.9225 134.454 28.5974 135.64 29.2723C136.71 29.8798 137.8 30.4583 138.937 30.9211C139.911 31.3164 140.914 31.6056 141.946 31.7792C142.553 31.8756 143.17 31.9142 143.787 31.9142C144.896 31.9142 145.995 31.7985 147.085 31.5381C148.569 31.1718 149.939 30.5643 151.231 29.7544C153.323 28.4431 155.02 26.7366 156.379 24.6925C157.43 23.1113 158.269 21.4432 158.847 19.6306C159.416 17.8565 159.686 16.0342 159.551 14.1637C159.358 11.5412 158.336 9.31395 156.36 7.55916C155.502 6.79746 154.518 6.24788 153.448 5.85257C152.542 5.51511 151.616 5.30299 150.662 5.16801C149.553 5.01374 148.454 5.0041 147.345 5.12944C145.484 5.33192 143.691 5.81401 141.974 6.54678C138.966 7.83877 136.334 9.66106 134.049 11.9944C132.969 13.1032 132.043 14.3277 131.214 15.6293C129.768 17.8951 128.601 20.2862 127.811 22.8606C127.502 23.8633 127.242 24.8757 127.059 25.9074C126.837 27.1126 126.741 28.3274 126.818 29.5519C126.914 30.9596 127.213 32.3288 127.907 33.5822C128.428 34.5271 129.151 35.2984 130.125 35.7901C130.877 36.1662 131.677 36.3397 132.516 36.2529C133.181 36.1855 133.808 35.9637 134.367 35.5684C134.531 35.4527 134.676 35.2888 134.801 35.1249C134.984 34.8935 135.138 34.6331 135.302 34.3921C135.351 34.3246 135.399 34.2475 135.466 34.1896C135.495 34.1607 135.553 34.1607 135.601 34.1607C135.63 34.1607 135.659 34.1993 135.717 34.2282C135.466 34.4596 135.331 34.7006 135.206 34.9417C134.897 35.5298 134.406 35.8962 133.808 36.1469C133.21 36.3976 132.583 36.5422 131.937 36.5133C131.34 36.4843 130.771 36.3494 130.221 36.118C129.161 35.6744 128.37 34.9224 127.763 33.9582C127.213 33.0808 126.866 32.1263 126.654 31.1139C126.374 29.7737 126.345 28.4239 126.48 27.0644C126.634 25.5121 126.991 24.0079 127.464 22.5231C128.794 18.3097 131.012 14.6265 134.136 11.5123C136.749 8.89936 139.805 6.95173 143.315 5.74651C144.385 5.38013 145.484 5.1198 146.612 4.95589C147.711 4.79198 148.82 4.74377 149.929 4.83055C151.751 4.96553 153.496 5.40905 155.087 6.3443C157.343 7.65558 158.78 9.60321 159.465 12.1004C159.802 13.3346 159.889 14.5976 159.802 15.8703L159.812 15.851ZM131.079 27.4308C131.079 27.4308 131.05 27.3826 131.041 27.3826C130.231 27.1222 129.421 27.1126 128.611 27.344C128.37 27.4115 128.148 27.5079 127.955 27.6622C127.84 27.7586 127.724 27.8839 127.647 28.0189C127.512 28.26 127.599 28.5203 127.849 28.636C127.975 28.6938 128.129 28.7324 128.274 28.742C128.611 28.7806 128.929 28.6842 129.238 28.5588C129.884 28.2889 130.472 27.9032 131.041 27.4886C131.06 27.4693 131.07 27.45 131.089 27.4211L131.079 27.4308Z" fill="#CC9052"/>
<path id="Vector_8" d="M174.689 24.808C174.689 24.808 174.612 24.8659 174.573 24.9045C173.628 25.5794 172.693 26.2736 171.69 26.8714C170.524 27.5656 169.28 28.1152 167.949 28.4623C167.082 28.684 166.194 28.819 165.298 28.8479C164.681 28.8672 164.073 28.7997 163.485 28.6262C163.273 28.5683 163.061 28.4912 162.868 28.3948C162.029 27.9898 161.634 27.3052 161.663 26.3796C161.673 26.0807 161.73 25.7722 161.759 25.4733C161.759 25.4251 161.759 25.3865 161.759 25.3094C161.566 25.4058 161.431 25.5312 161.277 25.6179C161.152 25.6951 161.017 25.7626 160.882 25.8011C160.718 25.8493 160.583 25.7529 160.583 25.5794C160.583 25.4348 160.602 25.2805 160.66 25.1455C160.892 24.5959 161.287 24.191 161.817 23.9114C162.049 23.7957 162.28 23.7571 162.511 23.8728C162.714 23.6896 162.897 23.516 163.099 23.3521C163.234 23.2461 163.379 23.1497 163.524 23.0629C163.63 23.005 163.755 23.005 163.871 23.0822C163.967 23.14 163.996 23.2364 163.948 23.3329C163.9 23.4196 163.852 23.5064 163.784 23.5739C163.678 23.6896 163.562 23.7957 163.437 23.9114C162.82 24.4802 162.405 25.1744 162.126 25.965C162 26.3218 161.991 26.6882 162.068 27.0546C162.155 27.4595 162.396 27.7584 162.723 27.9898C163.032 28.2019 163.369 28.3369 163.726 28.4237C164.324 28.578 164.931 28.6262 165.548 28.5972C167.033 28.5394 168.451 28.1634 169.81 27.5849C170.774 27.1799 171.671 26.6593 172.539 26.0711C173.088 25.7047 173.628 25.3191 174.168 24.943C174.284 24.8562 174.409 24.7791 174.535 24.702C174.564 24.6827 174.612 24.702 174.66 24.7213C174.66 24.7502 174.67 24.7695 174.679 24.7984L174.689 24.808ZM161.779 24.943C161.981 24.808 162.077 24.6056 162.174 24.3163C161.75 24.4031 161.48 24.6248 161.248 24.8852C161.027 25.1359 160.969 25.2516 160.959 25.4926C161.258 25.3383 161.518 25.1262 161.779 24.943Z" fill="#CC9052"/>
<path id="Vector_9" d="M183.54 24.8854C183.453 24.9721 183.376 25.0589 183.28 25.1457C181.486 26.6884 179.519 27.9611 177.36 28.9253C176.328 29.3881 175.287 29.8123 174.226 30.169C174.014 30.2365 173.869 30.3426 173.744 30.5258C172.876 31.7696 171.97 32.9941 170.996 34.1607C169.241 36.2723 167.351 38.2584 165.317 40.1097C163.929 41.3727 162.463 42.5394 160.853 43.5132C159.522 44.3135 158.115 44.9402 156.601 45.2969C155.569 45.538 154.528 45.6633 153.467 45.6247C152.368 45.5765 151.308 45.3644 150.305 44.8823C149.456 44.4677 148.772 43.8699 148.338 43.0311C147.856 42.1055 147.817 41.1317 148.116 40.1386C148.309 39.5119 148.618 38.943 149.013 38.4224C149.524 37.7571 150.131 37.1882 150.797 36.6868C151.915 35.8384 153.159 35.202 154.46 34.6814C155.704 34.1896 156.987 33.8233 158.279 33.5051C159.908 33.1001 161.547 32.7723 163.196 32.4734C164.97 32.1456 166.734 31.8467 168.499 31.4514C170.061 31.1043 171.623 30.7379 173.156 30.2751C173.31 30.2269 173.435 30.1594 173.532 30.0148C174.457 28.6649 175.373 27.2958 176.222 25.8978C176.289 25.782 176.357 25.6664 176.424 25.5506C176.405 25.5314 176.395 25.5121 176.386 25.5024C176.28 25.5699 176.164 25.6374 176.048 25.7049C175.788 25.8688 175.528 26.0231 175.229 26.1002C175.113 26.1292 174.988 26.1484 174.872 26.1388C174.564 26.1099 174.361 25.8978 174.313 25.5989C174.284 25.3578 174.322 25.1361 174.419 24.9143C174.621 24.4708 174.94 24.114 175.277 23.7766C175.306 23.7476 175.335 23.738 175.364 23.7187C175.441 23.6705 175.528 23.6705 175.605 23.738C175.672 23.7959 175.721 23.8826 175.682 23.9694C175.624 24.1044 175.557 24.2394 175.479 24.3551C175.306 24.6347 175.113 24.9047 174.94 25.1843C174.872 25.3 174.824 25.4253 174.795 25.5603C174.756 25.6953 174.843 25.8013 174.988 25.811C175.152 25.8303 175.306 25.8013 175.46 25.7338C175.99 25.5217 176.453 25.2035 176.858 24.8082C176.945 24.7215 177.003 24.6058 177.07 24.5093C177.215 24.2972 177.36 24.0851 177.514 23.8826C177.552 23.8248 177.61 23.7669 177.658 23.7187C177.736 23.6512 177.861 23.6416 177.928 23.6994C177.986 23.7476 178.025 23.8441 177.986 23.9308C177.948 24.0176 177.9 24.1044 177.851 24.1912C177.032 25.6278 176.154 27.0258 175.219 28.395C174.92 28.8288 174.621 29.2627 174.332 29.6966C174.294 29.7544 174.274 29.8123 174.236 29.8894C174.602 29.8509 175.431 29.5423 176.762 28.9638C177.572 28.6167 178.362 28.2311 179.134 27.8068C179.924 27.3826 180.676 26.9005 181.39 26.3702C182.383 25.6374 183.164 25.0204 183.453 24.7215C183.559 24.7986 183.588 24.8468 183.53 24.9047L183.54 24.8854ZM173.137 30.5354C173.011 30.5643 172.944 30.574 172.876 30.5933C171.989 30.8247 171.102 31.0657 170.215 31.2875C168.075 31.8178 165.905 32.2131 163.745 32.5988C162.135 32.888 160.525 33.1965 158.925 33.5726C157.565 33.8907 156.215 34.2475 154.914 34.7392C153.68 35.202 152.503 35.7516 151.414 36.5037C150.633 37.0436 149.91 37.6414 149.312 38.3838C148.888 38.9141 148.55 39.4926 148.338 40.1386C147.798 41.797 148.444 43.2432 149.543 44.1206C149.871 44.3809 150.237 44.5834 150.613 44.7473C151.385 45.0848 152.195 45.2583 153.034 45.3162C154.21 45.3933 155.376 45.2776 156.524 44.9787C157.912 44.622 159.204 44.0435 160.429 43.3204C161.759 42.5297 162.984 41.5945 164.15 40.5821C166.59 38.4802 168.788 36.1469 170.823 33.6593C171.575 32.7434 172.288 31.7888 172.963 30.815C173.011 30.7379 173.059 30.6608 173.127 30.5354H173.137Z" fill="#CC9052"/>
</g>
</svg>
